<?xml version="1.0" encoding="UTF-8"?>
<svg version="1.1" xmlns="http://www.w3.org/2000/svg" width="880" height="600">
<path d="M0 0 C1.13210998 -0.00551949 2.26421997 -0.01103897 3.43063632 -0.01672572 C4.66689974 -0.01261508 5.90316317 -0.00850444 7.17688912 -0.00426924 C8.51480516 -0.00696327 9.85271966 -0.01053147 11.1906313 -0.01489371 C14.87751981 -0.02436033 18.56430964 -0.02134829 22.25120303 -0.01633817 C26.25839176 -0.01307522 30.26555922 -0.021351 34.2727412 -0.02815652 C41.29938068 -0.03847247 48.3259926 -0.04129755 55.3526389 -0.03924429 C65.80151751 -0.03619846 76.25036555 -0.04450899 86.69923822 -0.05499355 C106.44527377 -0.07435297 126.19129894 -0.07996248 145.93734286 -0.08110766 C161.18359846 -0.0820261 176.42984998 -0.08613941 191.67610425 -0.09250891 C196.06181184 -0.09430395 200.44751944 -0.09608357 204.83322704 -0.09785867 C206.46858946 -0.09852181 206.46858946 -0.09852181 208.1369895 -0.09919835 C238.81061054 -0.1115097 269.48423016 -0.11939918 300.15785378 -0.1185118 C301.31472744 -0.11848064 302.4716011 -0.11844948 303.66353154 -0.11841738 C309.52729646 -0.11825116 315.39106137 -0.11805308 321.25482628 -0.11784796 C322.41943029 -0.11780807 323.58403429 -0.11776818 324.78392933 -0.11772708 C327.13904291 -0.11764621 329.49415649 -0.11756261 331.84927007 -0.1174763 C368.49791177 -0.11625056 405.14651648 -0.13126702 441.7951476 -0.15862143 C482.95157336 -0.18932765 524.10797482 -0.20655482 565.26441276 -0.20469499 C569.65106342 -0.20454572 574.03771408 -0.20444831 578.42436475 -0.20438635 C580.04457155 -0.20435139 580.04457155 -0.20435139 581.6975098 -0.20431572 C599.09631368 -0.20425412 616.4950855 -0.21703777 633.89387984 -0.23425088 C651.3730349 -0.25118612 668.85214295 -0.25319775 686.33130167 -0.24003224 C696.72078082 -0.2326291 707.11011734 -0.23634169 717.49958144 -0.25591692 C724.43619222 -0.26788433 731.37269929 -0.26536204 738.30930524 -0.25097592 C742.26377181 -0.24318548 746.21796165 -0.24173963 750.17240909 -0.25789063 C753.77116112 -0.27246041 757.36940629 -0.26856235 760.96813584 -0.25004289 C762.86959295 -0.2449855 764.77107151 -0.25951879 766.67247322 -0.27488846 C774.75493691 -0.20750065 781.1196536 0.98296708 787.55564564 6.07721841 C788.33295033 6.99954263 788.33295033 6.99954263 789.12595814 7.94049966 C789.92646596 8.84348794 789.92646596 8.84348794 790.74314564 9.76471841 C795.67047374 17.89608627 795.67910277 26.15492546 795.63190907 35.44819009 C795.63536994 36.8808527 795.64013739 38.31351264 795.64609081 39.74616706 C795.65857154 43.66487667 795.65244385 47.58336605 795.64313215 51.50207627 C795.63632995 55.73527351 795.64682868 59.96843353 795.65507191 64.20162332 C795.66839896 72.48728482 795.66553609 80.7728647 795.65683399 89.05852938 C795.65005381 95.79356123 795.64914218 102.52857024 795.65240544 109.26360452 C795.65286514 110.22283696 795.65332484 111.18206939 795.65379847 112.17036948 C795.65475766 114.1191431 795.6557303 116.06791671 795.65671624 118.01669031 C795.66526712 136.28249927 795.65544074 154.54826302 795.63931514 172.81406456 C795.62591224 188.48074395 795.62824042 204.14735664 795.64207143 219.81403482 C795.65813256 238.01530131 795.66444318 256.2165282 795.65523463 274.41780078 C795.65427901 276.35933212 795.65333589 278.30086346 795.65240544 280.2423948 C795.65194261 281.19761977 795.65147979 282.15284473 795.65100294 283.13701591 C795.64841465 289.86253072 795.65278057 296.58802037 795.6598441 303.31353128 C795.66826522 311.51172739 795.66596608 319.70983734 795.65000187 327.9080236 C795.6421274 332.08939952 795.63901348 336.27063189 795.64894933 340.4520067 C795.65791384 344.28259431 795.65293464 348.11290581 795.63701667 351.94346851 C795.63209857 353.97936466 795.64184964 356.01528009 795.65218836 358.05115592 C795.59054259 367.67326779 794.5204572 375.14342114 788.23923939 382.64753091 C780.84598785 388.61732734 774.199845 388.82586781 765.01366872 388.75636423 C763.666293 388.76054075 762.31892178 388.76646871 760.97156054 388.77398169 C757.26763989 388.7895527 753.5641365 388.78024139 749.86022268 388.76686988 C745.83121325 388.75672389 741.80226782 388.76976238 737.77326745 388.77984321 C730.7114416 388.79429589 723.64973804 388.79384812 716.58790654 388.78365457 C706.08681696 388.76853767 695.58583073 388.77625279 685.08474186 388.7884878 C666.33090585 388.80956443 647.57712431 388.80771977 628.82328311 388.79617215 C612.41164656 388.78611616 596.00003 388.78348021 579.58839101 388.78826272 C578.50043335 388.78856827 577.4124757 388.78887381 576.29154963 388.7891886 C571.87534948 388.79043393 567.45914933 388.79170752 563.0429492 388.79302766 C521.60230285 388.80526799 480.16169121 388.79416295 438.72105022 388.77264007 C401.89083166 388.75365717 365.06066841 388.75535566 328.23045033 388.77448404 C286.86636031 388.79589526 245.50230098 388.80439997 204.13820618 388.79203498 C199.72997922 388.79075208 195.32175226 388.78950072 190.91352528 388.78826272 C189.28535795 388.78778826 189.28535795 388.78778826 187.62429834 388.78730421 C171.22161444 388.7827513 154.8189527 388.78808104 138.41627187 388.79818094 C119.76862683 388.8096058 101.12104485 388.80678467 82.47340769 388.78505796 C72.03261287 388.77329501 61.59195454 388.77257168 51.15116321 388.78764266 C44.18168438 388.79659476 37.21231524 388.79106164 30.2428527 388.77362358 C26.26883705 388.76408608 22.29509308 388.76090094 18.32108575 388.77524751 C14.70577894 388.78816634 11.09098484 388.78268387 7.47571541 388.76252487 C5.56300621 388.75659596 3.65026689 388.77027058 1.73760325 388.784742 C-6.14195091 388.71568299 -11.46790617 387.70986954 -17.73732311 382.64753091 C-24.98000158 373.99477344 -25.18743317 364.9345142 -25.12999278 354.01311624 C-25.13345362 352.57561615 -25.13822103 351.13811872 -25.14417452 349.70062679 C-25.15665561 345.76858525 -25.15052741 341.83676318 -25.14121586 337.90472102 C-25.13441388 333.65722789 -25.14491225 329.40977187 -25.15315562 325.16228616 C-25.16648255 316.84888628 -25.16361996 308.53556773 -25.1549177 300.22216468 C-25.14813793 293.46519443 -25.14722571 286.70824695 -25.15048915 279.95127428 C-25.15094885 278.98897776 -25.15140855 278.02668124 -25.15188218 277.03522422 C-25.15284137 275.08024787 -25.15381401 273.12527152 -25.15479995 271.17029519 C-25.16335068 252.84681254 -25.15352445 234.52337494 -25.13739885 216.19989968 C-25.12399383 200.48116762 -25.12632591 184.76250202 -25.14015514 169.04377115 C-25.15621286 150.78355064 -25.16252899 132.52336959 -25.15331835 114.263143 C-25.15236271 112.31573177 -25.1514196 110.36832053 -25.15048915 108.42090929 C-25.15002632 107.4627795 -25.1495635 106.50464971 -25.14908665 105.51748569 C-25.1464975 98.76895879 -25.1508661 92.02045694 -25.15792781 85.27193391 C-25.16634504 77.04735889 -25.16405787 68.82286976 -25.14808558 60.59830456 C-25.14020621 56.40287581 -25.13710559 52.20759023 -25.14703304 48.01216257 C-25.15598724 44.16990812 -25.15103526 40.32792925 -25.13510038 36.48569972 C-25.13175567 35.09754763 -25.1334397 33.70937216 -25.14072774 32.32123517 C-25.19003107 22.14838373 -24.28522313 14.46991326 -17.74904186 6.25299966 C-12.24253917 1.94356278 -6.97831133 0.00418181 0 0 Z " fill="#2600FF" transform="translate(55.749041855335236,185.74700033664703)"/>
<path d="M0 0 C1.25306946 -0.0087616 2.50613892 -0.01752319 3.79718018 -0.02655029 C7.21516139 -0.04471867 10.63161835 -0.04055648 14.04951239 -0.02465487 C17.64029722 -0.01192894 21.23102026 -0.02375495 24.82180786 -0.03158569 C30.85235171 -0.04066529 36.88258875 -0.0287416 42.91308594 -0.00488281 C49.86380811 0.02230091 56.81379623 0.0135282 63.7645005 -0.01401484 C69.75209313 -0.03678309 75.73946611 -0.03986784 81.72708809 -0.02682149 C85.29439624 -0.01906588 88.86136066 -0.01787634 92.42864609 -0.03450394 C96.41104887 -0.05177166 100.39264528 -0.02776739 104.375 0 C105.54207489 -0.01012115 106.70914978 -0.02024231 107.91159058 -0.03067017 C116.07274694 0.07431384 122.88421765 1.69635286 129.11363029 7.248312 C133.70876135 12.08354651 136.66857305 18.2669221 139.81689453 24.08447266 C141.05458237 26.33421441 142.29421593 28.58288667 143.53564453 30.83056641 C144.47730469 32.53768799 144.47730469 32.53768799 145.43798828 34.27929688 C148.3211763 39.44700679 151.31516304 44.54749787 154.31689453 49.64697266 C159.68314687 58.78384169 164.89491784 67.99736137 170.04711914 77.25634766 C174.79443845 85.76610961 179.67396873 94.19377363 184.61181641 102.59423828 C187.14823216 106.91186178 189.67850381 111.23314367 192.15673828 115.58447266 C192.55111084 116.27412109 192.9454834 116.96376953 193.35180664 117.67431641 C195.51660541 122.09920233 196.18848383 126.79971285 195.31689453 131.64697266 C190.62379285 143.87644201 182.83980619 155.17007206 176.21826172 166.40869141 C173.09845038 171.72214513 170.01876384 177.05856994 166.94189453 182.39697266 C166.32467529 183.4674585 165.70745605 184.53794434 165.0715332 185.64086914 C160.75012604 193.142948 156.44610005 200.65486446 152.15127563 208.17218018 C151.13769668 209.94495201 150.12237511 211.71671574 149.10668945 213.48828125 C145.99277065 218.92720326 142.90385937 224.37608134 139.88720703 229.86962891 C139.35506592 230.82893311 138.8229248 231.7882373 138.2746582 232.77661133 C137.29965602 234.53731465 136.33527474 236.30396607 135.38452148 238.07788086 C131.16673026 245.65400946 125.86839945 251.1840764 117.31689453 253.64697266 C113.14669668 254.08821546 108.99784316 254.06716904 104.80737305 254.05102539 C103.5609906 254.05788864 102.31460815 254.06475189 101.03045654 254.07182312 C97.62736418 254.08694524 94.22482158 254.08859715 90.82173657 254.08288074 C87.97393453 254.07978057 85.12618157 254.0858905 82.27838653 254.09191948 C75.55672424 254.10594437 68.83518911 254.10442046 62.11352539 254.09301758 C55.19413074 254.08153818 48.27512376 254.09561335 41.35578018 254.12241405 C35.40054627 254.14461128 29.44543369 254.15119942 23.49016136 254.14533764 C19.93969714 254.14197644 16.38948137 254.14432691 12.8390522 254.16158867 C8.87781856 254.18000892 4.9170573 254.16582927 0.95581055 254.14868164 C-0.79391808 254.16318359 -0.79391808 254.16318359 -2.57899475 254.17797852 C-10.31865676 254.10791279 -15.61493603 252.99865562 -21.73193359 247.95898438 C-26.72228133 242.04321972 -30.44540909 235.52480769 -34.18310547 228.77197266 C-34.88117353 227.52804516 -35.58033217 226.28472911 -36.28051758 225.04199219 C-37.71732633 222.49092735 -39.15036184 219.93779991 -40.58105469 217.38330078 C-43.75189097 211.73371843 -46.99982022 206.12871852 -50.24560547 200.52197266 C-51.48527817 198.37488884 -52.72486147 196.2277534 -53.96435547 194.08056641 C-56.46147383 189.75858023 -58.96208119 185.43863169 -61.46435547 181.11962891 C-67.87715565 170.04177264 -74.23940032 158.93895376 -80.49560547 147.77197266 C-81.08865479 146.71357178 -81.6817041 145.6551709 -82.29272461 144.56469727 C-89.90522595 130.93295674 -89.90522595 130.93295674 -88.68310547 121.64697266 C-87.55029297 118.8293457 -87.55029297 118.8293457 -86.05810547 115.97119141 C-85.5121875 114.92495605 -84.96626953 113.8787207 -84.40380859 112.80078125 C-81.76243853 107.9595187 -79.00134328 103.19952939 -76.18310547 98.45947266 C-71.24481149 90.07806113 -66.41044383 81.649121 -61.68310547 73.14697266 C-56.56846359 63.96073625 -51.35026174 54.84326409 -46.02319336 45.77856445 C-42.85625724 40.38707918 -39.7256211 34.97814441 -36.64404297 29.53759766 C-35.63130691 27.75653002 -34.61804983 25.97575963 -33.60470581 24.19503784 C-32.64543502 22.5032622 -31.69455008 20.80674027 -30.74389648 19.11010742 C-25.11622604 9.22990572 -25.11622604 9.22990572 -20.68310547 5.64697266 C-20.17004286 5.22669611 -19.65698025 4.80641956 -19.12837029 4.37340736 C-12.9877569 -0.08271536 -7.40120463 -0.06396315 0 0 Z " fill="#FEFEFF" transform="translate(579.68310546875,252.35302734375)"/>
<path d="M0 0 C11.16938425 -0.39489957 22.33709556 -0.69642493 33.51205254 -0.88080692 C38.70228386 -0.96933678 43.8877233 -1.089227 49.07519531 -1.2824707 C54.08773333 -1.46801639 59.09568516 -1.56897772 64.11139297 -1.61291313 C66.01854862 -1.64418922 67.92546814 -1.70528525 69.83065414 -1.79741096 C81.94652311 -2.35965565 81.94652311 -2.35965565 87 0 C91.38321756 4.08695992 93.78695983 9.46244833 96.08709049 14.90571976 C97.40240697 17.92315061 99.02522609 20.69156629 100.6875 23.53125 C101.79303396 25.52007391 102.89720623 27.50965536 104 29.5 C108.03853075 36.74774485 112.09970598 43.97690467 116.3125 51.125 C116.7041333 51.79249268 117.0957666 52.45998535 117.49926758 53.14770508 C119.49210055 56.52395092 121.53532387 59.8577409 123.6484375 63.16015625 C124.07471436 63.83739746 124.50099121 64.51463867 124.94018555 65.21240234 C125.74474119 66.48640022 126.56302217 67.75188171 127.39770508 69.00634766 C129.16492652 71.82035393 130.03934646 73.52465764 129.76171875 76.87866211 C128.98651892 80.05524219 127.94735787 82.3779682 126.33203125 85.2109375 C125.4975647 86.68844482 125.4975647 86.68844482 124.64624023 88.19580078 C124.04110596 89.24493652 123.43597168 90.29407227 122.8125 91.375 C121.87289429 93.02798096 121.87289429 93.02798096 120.91430664 94.71435547 C116.07592343 103.20102837 111.15591966 111.64094035 106.21142578 120.06616211 C101.37818538 128.30945381 96.66583432 136.61772412 91.99780273 144.95556641 C91.48677002 145.86612793 90.9757373 146.77668945 90.44921875 147.71484375 C89.99893311 148.52042725 89.54864746 149.32601074 89.0847168 150.15600586 C88 152 88 152 87 153 C84.29161914 153.09514592 81.60881487 153.12554932 78.90014648 153.11352539 C78.05143982 153.11367142 77.20273315 153.11381744 76.32830811 153.1139679 C73.50921109 153.11326848 70.69017929 153.10547478 67.87109375 153.09765625 C65.92196183 153.09579217 63.97282945 153.09436822 62.0236969 153.09336853 C56.88293168 153.08954255 51.74219453 153.07971159 46.60144043 153.06866455 C41.35994852 153.05845215 36.1184521 153.05387128 30.87695312 153.04882812 C20.58462306 153.03808939 10.29231386 153.02101201 0 153 C-0.41708221 152.24624084 -0.83416443 151.49248169 -1.2638855 150.71588135 C-2.84731761 147.85576487 -4.4319372 144.99631258 -6.01730347 142.13726807 C-6.69659571 140.91169241 -7.37544575 139.68587153 -8.05380249 138.45977783 C-12.64445078 130.16334349 -17.3241611 121.92735433 -22.125 113.75 C-26.89816787 105.60805044 -31.64178799 97.45127795 -36.3125 89.25 C-36.87018066 88.27901367 -37.42786133 87.30802734 -38.00244141 86.30761719 C-38.51339355 85.40688477 -39.0243457 84.50615234 -39.55078125 83.578125 C-40.22620972 82.39331543 -40.22620972 82.39331543 -40.9152832 81.18457031 C-41.99307945 79.01393766 -42.76622918 77.41396974 -43 75 C-42.06640625 72.75537109 -42.06640625 72.75537109 -40.5625 70.2734375 C-40.00498047 69.33765869 -39.44746094 68.40187988 -38.87304688 67.43774414 C-38.25494141 66.42703857 -37.63683594 65.41633301 -37 64.375 C-35.69710004 62.19449816 -34.3950448 60.0134914 -33.09375 57.83203125 C-32.41570313 56.70361816 -31.73765625 55.57520508 -31.0390625 54.41259766 C-27.80225358 48.99543828 -24.64997515 43.5304606 -21.5 38.0625 C-20.95730469 37.12647949 -20.41460938 36.19045898 -19.85546875 35.22607422 C-13.11209051 23.55499171 -6.57320482 11.76741621 0 0 Z " fill="#2600FF" transform="translate(589,303)"/>
<path d="M0 0 C6.91062398 4.12638498 10.88492964 9.79555043 13.5625 17.3125 C14.84334054 24.43441507 13.38643689 31.20682718 9.5625 37.3125 C4.30457323 43.65891713 -2.06447961 49.14613821 -8.3203125 54.48046875 C-11.03424676 56.82887312 -13.67288613 59.25645128 -16.3125 61.6875 C-21.65349531 66.60084745 -27.03634172 71.46530667 -32.4375 76.3125 C-33.283125 77.075625 -34.12875 77.83875 -35 78.625 C-38.76923656 82.02650617 -42.54387612 85.41824868 -46.375 88.75 C-50.57192081 92.40428862 -54.6740276 96.15994973 -58.78515625 99.91015625 C-60.96210996 101.88191844 -63.15588674 103.82615337 -65.375 105.75 C-69.3406013 109.19230546 -73.20135019 112.74680235 -77.05053711 116.31811523 C-80.42519201 119.43496437 -83.89015952 122.39673349 -87.4375 125.3125 C-86.71175781 126.03695312 -85.98601562 126.76140625 -85.23828125 127.5078125 C-83.50119958 129.24731687 -81.76854865 130.99127282 -80.04296875 132.7421875 C-78.84607422 133.95261719 -78.84607422 133.95261719 -77.625 135.1875 C-76.83480469 135.98929688 -76.04460937 136.79109375 -75.23046875 137.6171875 C-72.40552899 140.34335315 -69.48337761 142.91140353 -66.51879883 145.48291016 C-63.16657289 148.4297232 -59.93045986 151.49655321 -56.6875 154.5625 C-50.94935663 159.96486904 -45.17814591 165.32509914 -39.359375 170.640625 C-36.23106015 173.50127655 -33.1138228 176.3735975 -30 179.25 C-29.45964111 179.74910889 -28.91928223 180.24821777 -28.36254883 180.76245117 C-27.26785108 181.77370612 -26.17320604 182.78501812 -25.07861328 183.79638672 C-22.90596036 185.80355343 -20.73248411 187.80982705 -18.55883789 189.81591797 C-17.48100151 190.81081889 -16.40336361 191.80593489 -15.32592773 192.80126953 C-12.54692016 195.36812309 -9.76455466 197.93118681 -6.9765625 200.48828125 C-3.78489152 203.41692233 -0.60991386 206.36301252 2.5625 209.3125 C3.31015625 209.993125 4.0578125 210.67375 4.828125 211.375 C9.59432451 215.86083483 12.23979601 219.76275607 12.83984375 226.36328125 C13.08745279 234.95036292 12.27564353 242.31217295 6.1875 248.92578125 C0.02699553 254.18294252 -6.52428943 256.20371636 -14.56640625 255.7734375 C-23.77736252 254.29467173 -29.41577417 247.65694417 -35.59375 241.23046875 C-37.79915996 238.93995556 -40.07084054 236.80582553 -42.5 234.75 C-46.33304029 231.49072041 -49.84120817 227.9373468 -53.37133789 224.35913086 C-55.9767137 221.73209998 -58.62212205 219.21249432 -61.4375 216.8125 C-65.2871396 213.53084001 -68.81752309 209.96144824 -72.36669922 206.36376953 C-75.61452161 203.08889134 -78.97974254 200.03589378 -82.48828125 197.046875 C-84.67726394 195.09916295 -86.705579 193.03619767 -88.75 190.9375 C-92.82062753 186.81091882 -97.16317518 183.18386453 -101.68359375 179.5625 C-104.3467645 177.38663284 -106.89792448 175.13071791 -109.4375 172.8125 C-112.85489372 169.69791332 -116.3427235 166.7206338 -119.9375 163.8125 C-123.5322765 160.9043662 -127.02010628 157.92708668 -130.4375 154.8125 C-133.87632922 151.67886006 -137.38618468 148.68025637 -141 145.75 C-144.53797297 142.87539696 -148.05278237 139.9831691 -151.5 137 C-152.21285156 136.38511719 -152.92570313 135.77023437 -153.66015625 135.13671875 C-156.6005032 132.11882419 -157.33462861 130.11342721 -157.875 125.90625 C-157.31108056 121.27405462 -155.83008747 119.94695581 -152.4375 116.8125 C-151.93202637 116.33675537 -151.42655273 115.86101074 -150.90576172 115.37084961 C-149.43543028 113.9973426 -147.93702449 112.65407458 -146.4375 111.3125 C-145.75945312 110.70535156 -145.08140625 110.09820312 -144.3828125 109.47265625 C-143.1506582 108.3912161 -141.91079709 107.31850471 -140.6640625 106.25390625 C-137.69797318 103.66768451 -134.82110861 100.98999022 -131.9375 98.3125 C-127.85476279 94.52589888 -123.73979099 90.79481927 -119.52734375 87.15234375 C-116.79379441 84.74579844 -114.11635994 82.27946804 -111.4375 79.8125 C-107.52770819 76.21234677 -103.57883464 72.66832336 -99.5625 69.1875 C-96.81926582 66.76699925 -94.12865432 64.29049358 -91.4375 61.8125 C-88.13721077 58.77361982 -84.82800717 55.75093955 -81.4375 52.8125 C-77.55932987 49.44927362 -73.78222189 45.97914329 -70.00439453 42.50439453 C-64.38341004 37.33634427 -58.70026666 32.23846494 -53.015625 27.140625 C-48.99194687 23.52700324 -44.98604791 19.89850461 -41.02148438 16.2199707 C-36.61115592 12.1401338 -32.15157928 8.12923527 -27.5625 4.25 C-26.71945312 3.53714844 -25.87640625 2.82429688 -25.0078125 2.08984375 C-17.92615663 -2.80704595 -7.8437907 -3.67631177 0 0 Z " fill="#FDFDFF" transform="translate(344.4375,253.6875)"/>
<path d="M0 0 C1.15314697 -0.00430527 1.15314697 -0.00430527 2.32958984 -0.00869751 C3.94304142 -0.01072456 5.55651834 -0.0052906 7.16992188 0.00732422 C9.61905633 0.02339849 12.06654097 0.00743006 14.515625 -0.01171875 C16.09375359 -0.00973608 17.67188116 -0.0058919 19.25 0 C19.97106934 -0.00607269 20.69213867 -0.01214539 21.43505859 -0.0184021 C28.50214594 0.07784986 34.85948692 1.90278958 39.9375 7.0859375 C40.57300781 7.70855469 41.20851563 8.33117187 41.86328125 8.97265625 C46.33888516 15.13529489 47.06619732 21.29234145 47.01268005 28.65869141 C47.01806559 29.5582638 47.02345113 30.45783619 47.02899987 31.38466835 C47.04324138 34.38158707 47.03618513 37.37806173 47.02905273 40.375 C47.03475823 42.53066359 47.04172318 44.68632416 47.04985046 46.84197998 C47.0677756 52.68487592 47.06661483 58.52762163 47.06090808 64.3705368 C47.05781578 69.25137982 47.06390905 74.132194 47.06994683 79.01303291 C47.08398789 90.52759327 47.08243378 102.04207941 47.07104492 113.55664062 C47.05955967 125.43098383 47.07364731 137.30510129 47.1004414 149.17941475 C47.12259792 159.3809067 47.12923599 169.58232778 47.12336498 179.78384209 C47.11999466 185.8739551 47.12241591 191.96392336 47.13961601 198.05401611 C47.15508251 203.7799952 47.15113255 209.50563967 47.13231087 215.23160553 C47.12862444 217.33102606 47.13173499 219.43047138 47.14219666 221.52986908 C47.15540406 224.39969243 47.14386103 227.26840756 47.12620544 230.13818359 C47.14061295 231.379057 47.14061295 231.379057 47.15531152 232.64499855 C47.0707376 239.34368466 45.09325932 244.46867591 40.765625 249.60546875 C33.76843998 255.54729322 27.72212053 258.10489904 18.43359375 257.80859375 C11.14394554 256.74404151 5.51008467 253.05021176 0.87890625 247.4375 C-2.5815703 241.81018299 -3.81796746 237.11297953 -3.73576355 230.53334045 C-3.73832682 229.77190229 -3.7408901 229.01046413 -3.74353105 228.22595209 C-3.74844724 225.69086084 -3.73201232 223.15637368 -3.71557617 220.62133789 C-3.71472943 218.7976686 -3.71520596 216.97399829 -3.71690369 215.15032959 C-3.71776322 210.21072896 -3.70014412 205.27134759 -3.67918181 200.33179784 C-3.66040813 195.16550007 -3.65866402 189.9991971 -3.65510559 184.83287048 C-3.64578717 175.05470664 -3.62117609 165.27664361 -3.59105712 155.49852413 C-3.55750684 144.36436777 -3.54102551 133.23020657 -3.52597082 122.09601223 C-3.49462639 99.1967648 -3.44186979 76.2976068 -3.375 53.3984375 C-4.05989502 53.27291504 -4.74479004 53.14739258 -5.45043945 53.01806641 C-6.34980225 52.84710449 -7.24916504 52.67614258 -8.17578125 52.5 C-9.51249878 52.24984131 -9.51249878 52.24984131 -10.8762207 51.99462891 C-17.59178824 50.39234108 -22.55689096 44.92879132 -26.375 39.3984375 C-29.43116763 32.11846345 -29.88870102 23.18281393 -27.5 15.6328125 C-23.6899259 8.26332706 -18.32841917 3.88588418 -10.59968567 1.04763794 C-7.05660568 0.01370801 -3.66950537 -0.0309038 0 0 Z " fill="#FEFEFF" transform="translate(431.375,251.6015625)"/>
<path d="M0 0 C3.52852325 2.66074899 5.93165321 5.84195683 8.16015625 9.62890625 C8.68286244 10.40691149 8.68286244 10.40691149 9.21612835 11.200634 C10.64573928 14.87794539 10.43829659 18.55609942 10.42085266 22.44610596 C10.42659098 23.79646332 10.42659098 23.79646332 10.43244523 25.17410064 C10.4427817 28.19718081 10.43878179 31.22007128 10.43481445 34.24316406 C10.43916065 36.40808793 10.44434348 38.57301026 10.45030212 40.7379303 C10.46371542 46.62442377 10.46426804 52.51085312 10.46173882 58.39735889 C10.46067038 63.31030475 10.4655494 68.22323757 10.47034425 73.13618064 C10.48144816 84.72832953 10.4818723 96.32044602 10.47583008 107.91259766 C10.46979277 119.87088768 10.48209316 131.82905998 10.50340015 143.78732991 C10.52101771 154.05242642 10.52701713 164.31748547 10.5237624 174.58259654 C10.52194917 180.71410619 10.52458958 186.84553192 10.53847694 192.97702789 C10.55105258 198.74558041 10.54911351 204.51394961 10.53606606 210.28249931 C10.53369992 212.39804331 10.53643629 214.51360019 10.54468918 216.62912941 C10.55515529 219.5208893 10.54705673 222.412034 10.53437805 225.30377197 C10.54175234 226.13764034 10.54912662 226.9715087 10.55672437 227.8306458 C10.49872875 234.13429256 9.32353048 239.51275063 5.65234375 244.80078125 C-0.41044066 250.71712159 -6.22017642 253.77451861 -14.77734375 254.19140625 C-22.60237801 253.89236035 -28.91963216 251.05587125 -34.27734375 245.31640625 C-39.40129432 239.24414244 -40.28321464 232.0896826 -40.22079468 224.48254395 C-40.22547465 223.59522221 -40.23015462 222.70790048 -40.23497641 221.7936902 C-40.24688514 218.83821683 -40.2374853 215.8832107 -40.22802734 212.92773438 C-40.23209487 210.80162792 -40.23743777 208.67552357 -40.24395752 206.54942322 C-40.25761528 200.787094 -40.25233875 195.02492621 -40.24282026 189.26259422 C-40.23521574 183.22718247 -40.24227148 177.19178438 -40.24697876 171.15637207 C-40.25243399 161.02170332 -40.24525076 150.88710019 -40.23095703 140.75244141 C-40.21463101 129.04172459 -40.21991968 117.33116447 -40.23643625 105.62045145 C-40.2500577 95.55908827 -40.25196753 85.49777222 -40.24412024 75.4364028 C-40.23944737 69.4301557 -40.23880832 63.42398221 -40.24872971 57.41773987 C-40.25740662 51.77059673 -40.25136401 46.12365528 -40.23404694 40.47653389 C-40.230086 38.40614214 -40.23120939 36.33573337 -40.23783493 34.26534843 C-40.24605593 31.43509397 -40.23572198 28.60548229 -40.22079468 25.77526855 C-40.22748684 24.95969246 -40.23417901 24.14411637 -40.24107397 23.30382586 C-40.15396705 14.76496594 -37.43833164 8.58267745 -31.609375 2.32421875 C-23.2055776 -5.7271015 -9.75545445 -5.56774718 0 0 Z " fill="#FEFEFF" transform="translate(164.83984375,255.37109375)"/>
<path d="M0 0 C8.26821988 4.9709743 13.25809333 12.80190724 18.125 20.875 C19.44766094 23.03010489 20.77058497 25.18504832 22.09375 27.33984375 C22.76277344 28.4366748 23.43179688 29.53350586 24.12109375 30.66357422 C27.25171724 35.77829901 30.43966948 40.85673847 33.625 45.9375 C34.85966811 47.91257722 36.09404145 49.88783873 37.328125 51.86328125 C39.98314297 56.11144872 42.63963272 60.35869226 45.296875 64.60546875 C45.97943359 65.69666016 46.66199219 66.78785156 47.36523438 67.91210938 C48.67345778 70.00348692 49.98203322 72.0946443 51.29101562 74.18554688 C51.88076172 75.12849609 52.47050781 76.07144531 53.078125 77.04296875 C53.59536133 77.86949951 54.11259766 78.69603027 54.64550781 79.54760742 C56.16204277 81.9973369 57.64487942 84.46564215 59.125 86.9375 C59.12864563 85.94857758 59.13229126 84.95965515 59.13604736 83.94076538 C59.17301923 74.61240305 59.23081583 65.28437018 59.30890274 55.95625877 C59.34837984 51.16076684 59.38056718 46.3654586 59.39599609 41.56982422 C59.41116115 36.94008083 59.44560396 32.31084244 59.49330902 27.68132401 C59.50812438 25.91677876 59.51604111 24.15216141 59.51688385 22.38755417 C59.51925485 19.91195855 59.54634341 17.43775701 59.57910156 14.96240234 C59.57155602 13.8726712 59.57155602 13.8726712 59.56385803 12.76092529 C59.6669958 7.70975037 60.95004115 4.82930155 64.125 0.9375 C68.92305999 -2.40998372 73.4604992 -2.78454588 79.125 -2.0625 C83.85655569 -0.54483119 85.92644773 1.47469506 88.29551888 5.82582474 C89.8584487 9.80469798 89.67090657 13.8211474 89.62670898 18.04443359 C89.63481346 19.53120857 89.63481346 19.53120857 89.64308167 21.04801941 C89.65554584 24.31096647 89.63909026 27.57302707 89.62109375 30.8359375 C89.62124882 33.1136581 89.62273905 35.39137897 89.62550354 37.6690979 C89.62688659 42.43869722 89.61434669 47.20799549 89.59155273 51.97753906 C89.56320111 58.0759827 89.56589813 64.1739251 89.57864285 70.27240562 C89.58561601 74.97545614 89.57779144 79.6783919 89.56538582 84.38142776 C89.56088497 86.62918278 89.56052251 88.87695018 89.56445122 91.12470627 C89.56737862 94.27398434 89.55078186 97.4225851 89.52905273 100.57177734 C89.53355438 101.49154861 89.53805603 102.41131989 89.54269409 103.35896301 C89.45792294 110.79576726 88.06562071 116.99884579 83.9375 123.25 C78.32832919 128.60987433 73.8795723 130.18854865 66.0625 130.4375 C56.61959728 130.11569714 52.67633711 126.79209268 46.21630859 120.27001953 C42.73474282 116.38689096 40.08383992 112.06634746 37.375 107.625 C36.77574707 106.66295654 36.17649414 105.70091309 35.55908203 104.7097168 C34.33054513 102.73707927 33.10606946 100.76190644 31.88574219 98.78417969 C29.28898962 94.58588034 26.64316515 90.41916125 24 86.25 C23.01651578 84.69166575 22.03344136 83.1330728 21.05078125 81.57421875 C19.09334608 78.47042589 17.13223988 75.36900223 15.16796875 72.26953125 C9.81544362 63.81928351 4.50531132 55.3446228 -0.75390625 46.8359375 C-1.34659302 45.87776123 -1.93927979 44.91958496 -2.54992676 43.93237305 C-3.99196757 41.60096466 -5.43365318 39.26933748 -6.875 36.9375 C-6.87864563 37.97653473 -6.88229126 39.01556946 -6.88604736 40.08609009 C-6.9230132 49.88535996 -6.98080332 59.68431605 -7.05890274 69.48334694 C-7.09838609 74.52097488 -7.13057041 79.5584278 -7.14599609 84.59619141 C-7.16115696 89.45934207 -7.19559253 94.32201158 -7.24330902 99.18494797 C-7.25812867 101.03881011 -7.26604135 102.89274095 -7.26688385 104.74666214 C-7.26925352 107.3467646 -7.2963322 109.94553736 -7.32910156 112.54541016 C-7.3240712 113.30930054 -7.31904083 114.07319092 -7.31385803 114.86022949 C-7.43265802 120.96585231 -9.44741309 124.59908976 -13.7890625 128.78125 C-17.87701833 131.047233 -22.3648929 130.6424082 -26.875 129.9375 C-30.82296355 127.97519859 -33.21164653 124.98088968 -34.875 120.9375 C-35.13226891 118.84624195 -35.13226891 118.84624195 -35.14242554 116.56880188 C-35.15095551 115.70123764 -35.15948547 114.8336734 -35.16827393 113.93981934 C-35.16736755 112.99586304 -35.16646118 112.05190674 -35.16552734 111.0793457 C-35.17224457 110.07884689 -35.17896179 109.07834808 -35.18588257 108.04753113 C-35.20489741 104.7360641 -35.20878896 101.4247995 -35.2109375 98.11328125 C-35.21736446 95.8088523 -35.22409274 93.50442418 -35.23110962 91.19999695 C-35.24309215 86.3654898 -35.24678958 81.53105415 -35.24560547 76.6965332 C-35.24540256 70.51389282 -35.27267146 64.33171357 -35.30714989 58.14918232 C-35.32943688 53.38695692 -35.3334424 48.62484201 -35.33238602 43.86256981 C-35.33474053 41.58409223 -35.34355558 39.30561154 -35.35905075 37.02718544 C-35.37874047 33.8320091 -35.3728597 30.63782066 -35.36083984 27.44262695 C-35.37207886 26.50879181 -35.38331787 25.57495667 -35.39489746 24.61282349 C-35.32238808 16.99224408 -33.17898525 10.76637888 -28.625 4.625 C-20.89176407 -2.93248056 -9.91814431 -5.12013604 0 0 Z " fill="#2600FF" transform="translate(760.875,31.0625)"/>
<path d="M0 0 C0.702957 -0.00817749 1.405914 -0.01635498 2.13017273 -0.02478027 C4.4495663 -0.04953286 6.76889919 -0.06612198 9.08837891 -0.08056641 C9.88259876 -0.08589008 10.67681862 -0.09121376 11.49510574 -0.09669876 C15.6970854 -0.12338323 19.8990358 -0.14277514 24.10107422 -0.15722656 C27.57367228 -0.17057613 31.04568416 -0.1984533 34.51806641 -0.23925781 C38.71784439 -0.28860259 42.91709006 -0.31334901 47.11714554 -0.32045364 C48.71432945 -0.32715922 50.3115018 -0.34236342 51.90851974 -0.36634445 C54.14667191 -0.39804229 56.38277515 -0.39802762 58.62109375 -0.390625 C59.89254242 -0.39871185 61.16399109 -0.40679871 62.47396851 -0.41513062 C67.06500076 0.39022925 68.65920609 1.93278059 71.93994141 5.19287109 C74.22828103 9.14545772 74.33563848 12.68192448 73.93994141 17.19287109 C72.1999986 21.8632439 70.09821769 24.45449403 65.93994141 27.19287109 C62.47736795 28.36594531 59.14161373 28.33002739 55.5065918 28.35058594 C53.54919823 28.36597916 53.54919823 28.36597916 51.55226135 28.38168335 C50.51011569 28.38684023 50.51011569 28.38684023 49.44691658 28.39210129 C47.26501149 28.40393105 45.08330071 28.42339302 42.901474 28.44522095 C36.6996 28.50670777 30.49774865 28.56088762 24.2956543 28.59423828 C20.49777647 28.61520739 16.70025811 28.65052358 12.90258598 28.69499588 C11.45818758 28.70913329 10.01372564 28.71787323 8.56926155 28.72105026 C6.54699147 28.72597011 4.52479945 28.7507577 2.50268555 28.77636719 C1.35337051 28.78445404 0.20405548 28.79254089 -0.98008728 28.8008728 C-4.40334153 29.23656187 -6.2901694 30.17354821 -9.06005859 32.19287109 C-11.62638376 35.61463798 -11.4244091 39.03927531 -11.06005859 43.19287109 C-9.35754625 47.02352387 -7.90251141 48.6349601 -4.06005859 50.19287109 C-1.88662782 50.49574644 -1.88662782 50.49574644 0.42626953 50.46411133 C1.3081897 50.47429794 2.19010986 50.48448456 3.09875488 50.49497986 C4.52061096 50.49818993 4.52061096 50.49818993 5.97119141 50.50146484 C7.99983983 50.52664802 10.02848559 50.55204567 12.05712891 50.57763672 C15.23843548 50.6062245 18.41969538 50.63025069 21.60107422 50.64916992 C39.06380733 50.77320276 53.99608097 51.03235079 67.68994141 63.31787109 C76.71844054 72.88123392 78.41149142 84.0899685 78.22509766 96.61865234 C77.83917029 106.0612672 73.90846968 113.65741021 67.75244141 120.69287109 C55.90261848 131.22604703 44.1934233 132.66694831 28.76416016 132.62646484 C27.22483594 132.63103646 25.68551375 132.63634492 24.14619446 132.64234924 C20.94153472 132.65122386 17.73712502 132.64891837 14.5324707 132.63891602 C10.43579001 132.62737147 6.33996433 132.64774922 2.24339581 132.67683315 C-0.92658406 132.69520397 -4.09635865 132.69490206 -7.2663784 132.68919563 C-8.77699174 132.68904286 -10.28761938 132.69505111 -11.79818153 132.70748711 C-13.90856113 132.72243175 -16.01735432 132.71170144 -18.12768555 132.69458008 C-19.92324638 132.69433083 -19.92324638 132.69433083 -21.75508118 132.69407654 C-25.75896332 132.086881 -27.91521424 130.70099769 -31.06005859 128.19287109 C-34.1542957 123.65465667 -34.84954209 119.53788774 -34.06005859 114.19287109 C-32.48305537 110.01381254 -30.9207303 107.48514492 -27.06005859 105.19287109 C-23.71402524 104.07752664 -21.19044572 104.06155236 -17.66430664 104.05102539 C-16.69787231 104.04581375 -16.69787231 104.04581375 -15.71191406 104.04049683 C-14.31399585 104.03315134 -12.91606606 104.02779952 -11.51813316 104.02420616 C-9.3024239 104.01702714 -7.08693435 104.0013496 -4.87129211 103.98286438 C1.42797822 103.93046532 7.72712777 103.88243627 14.02661133 103.86694336 C17.88176501 103.85684103 21.73636464 103.82746075 25.59129906 103.78562355 C27.05720001 103.77334077 28.52317931 103.76818733 29.98913002 103.77042198 C32.04535298 103.77278496 34.09999698 103.75053783 36.15600586 103.72290039 C37.32388138 103.71703415 38.4917569 103.71116791 39.69502258 103.7051239 C43.6409314 103.08221067 45.82467353 101.64749884 48.93994141 99.19287109 C51.19863651 95.89894073 51.01934142 93.43191486 50.37744141 89.63037109 C49.53007288 86.34476796 48.97948007 85.23449074 46.56494141 82.69287109 C42.78596001 80.53345315 39.66173892 80.06996452 35.34594727 80.05102539 C34.44077866 80.04399094 33.53561005 80.03695648 32.60301208 80.02970886 C31.6300972 80.02554459 30.65718231 80.02138031 29.65478516 80.01708984 C27.57599915 79.99387735 25.49722309 79.96975945 23.41845703 79.94482422 C20.1557767 79.90984684 16.89345946 79.88043734 13.63061523 79.86694336 C10.47156042 79.85133657 7.31355719 79.81103436 4.15478516 79.76708984 C2.71666725 79.76995247 2.71666725 79.76995247 1.24949646 79.77287292 C-10.14692779 79.57018648 -21.0185564 75.42578722 -29.03271484 67.15771484 C-36.70508732 57.9215467 -40.04744274 47.13290534 -39.06005859 35.19287109 C-37.30520269 24.17297089 -33.10926074 14.87097805 -24.34521484 7.72802734 C-16.66088391 2.56573323 -9.17094535 0.09287825 0 0 Z " fill="#2600FF" transform="translate(371.06005859375,28.80712890625)"/>
<path d="M0 0 C5.51722758 3.89101918 8.07998417 8.07371679 11.0625 14.0625 C11.53381348 14.98530762 12.00512695 15.90811523 12.49072266 16.85888672 C16.68304044 25.15970342 20.57483772 33.59836151 24.44384766 42.0534668 C30.59502747 55.45955991 37.13588131 68.67602159 43.66552734 81.90087891 C51.17149261 97.13162659 51.17149261 97.13162659 54.62890625 104.8515625 C55.09498291 105.88361816 55.56105957 106.91567383 56.04125977 107.97900391 C57.53783225 112.69471257 57.53662446 116.55958697 55.8125 121.1875 C53.20995401 125.22593343 50.55880664 127.48039779 46 129 C39.87544882 129.50201239 36.87482354 129.09928344 32 125 C28.7909922 121.35309093 26.66816786 117.64732242 24.56640625 113.27734375 C24.25238358 112.62832596 23.9383609 111.97930817 23.61482239 111.31062317 C22.59084539 109.18932479 21.57648295 107.06359136 20.5625 104.9375 C19.8455648 103.44612078 19.12827502 101.95491197 18.41064453 100.46386719 C13.45583908 90.14642422 8.61374791 79.77850093 3.82373047 69.38354492 C-2.27561599 56.17147199 -8.63448984 43.08538001 -15 30 C-17.35079553 32.95482839 -19.0960366 35.94663732 -20.77734375 39.32421875 C-21.29103516 40.35353516 -21.80472656 41.38285156 -22.33398438 42.44335938 C-22.86314453 43.51392578 -23.39230469 44.58449219 -23.9375 45.6875 C-24.72543945 47.2643457 -24.72543945 47.2643457 -25.52929688 48.87304688 C-28.50286124 54.85367007 -31.356636 60.86595245 -34 67 C-33.3702124 67.0093457 -32.7404248 67.01869141 -32.09155273 67.02832031 C-29.20610782 67.08238762 -26.32222136 67.16596125 -23.4375 67.25 C-21.9515332 67.27126953 -21.9515332 67.27126953 -20.43554688 67.29296875 C-14.12650699 67.5025714 -10.13634755 68.25129473 -5 72 C-1.63032843 76.67406056 -1.12572552 81.41435747 -2 87 C-3.28675305 90.5904561 -5.08274541 93.2655762 -8.09448242 95.67700195 C-12.07709827 97.49044581 -15.47775586 97.37607942 -19.80078125 97.29296875 C-21.0553437 97.28660149 -21.0553437 97.28660149 -22.33525085 97.28010559 C-24.99466765 97.26337364 -27.653314 97.22573226 -30.3125 97.1875 C-32.12043173 97.17244604 -33.92837539 97.15875888 -35.73632812 97.14648438 C-40.15784689 97.11348816 -44.57879302 97.06174428 -49 97 C-49.2889917 97.89581787 -49.5779834 98.79163574 -49.87573242 99.71459961 C-51.39320225 104.14903858 -53.32801809 108.32128493 -55.3125 112.5625 C-55.69083984 113.39974609 -56.06917969 114.23699219 -56.45898438 115.09960938 C-59.10427716 120.75274776 -61.70544977 124.61429121 -66.8125 128.3125 C-70.94486402 129.61124298 -74.92957132 129.79695072 -78.96875 128.2421875 C-83.76666463 125.66025887 -86.29688239 123.10935282 -88 118 C-88.90177184 110.93457117 -85.97085081 105.76053203 -82.9375 99.5 C-82.40310303 98.36997559 -81.86870605 97.23995117 -81.31811523 96.07568359 C-79.56186807 92.37564112 -77.78433141 88.68654302 -76 85 C-75.38957308 83.73603899 -74.77922172 82.4720415 -74.16894531 81.20800781 C-71.66985739 76.03543851 -69.16703994 70.86472161 -66.65136719 65.70019531 C-62.95923664 58.11175892 -59.35080707 50.49127511 -55.82861328 42.82250977 C-51.57027364 33.55260736 -47.298491 24.28835422 -42.6875 15.1875 C-42.32744873 14.44725586 -41.96739746 13.70701172 -41.59643555 12.94433594 C-37.96979267 5.96041597 -32.05193558 -0.13120232 -24.3984375 -2.56640625 C-16.00853348 -4.08314786 -7.62015939 -3.94615397 0 0 Z " fill="#2600FF" transform="translate(266,32)"/>
<path d="M0 0 C1.81122454 -0.00202375 3.62244828 -0.00493769 5.43367004 -0.00869751 C9.21521828 -0.0131033 12.9965529 -0.00674403 16.77807617 0.00732422 C21.61676792 0.02445197 26.45496168 0.01454123 31.29363537 -0.00339317 C35.02805823 -0.0142469 38.76236348 -0.01077801 42.49678993 -0.0030098 C44.28091809 -0.00101409 46.06505706 -0.00344487 47.84917259 -0.01044846 C50.34268799 -0.01809331 52.83540154 -0.00641843 55.32885742 0.01025391 C56.05990692 0.00418121 56.79095642 -0.00189148 57.54415894 -0.00814819 C63.41202029 0.06429614 67.3942751 1.56036428 71.70703125 5.5234375 C74.00616058 9.44047265 74.58621805 12.87782373 74.39453125 17.3984375 C72.70180344 22.67576539 70.15833297 24.73129886 65.39453125 27.3984375 C61.97325134 27.90396118 61.97325134 27.90396118 58.18334961 27.91259766 C57.14069695 27.92328529 57.14069695 27.92328529 56.07698059 27.93418884 C53.79581766 27.95337508 51.51559109 27.94520928 49.234375 27.9375 C47.64065709 27.94741332 46.04695064 27.95935698 44.45326233 27.97323608 C40.2679658 28.0055389 36.08293088 28.01598496 31.89752197 28.02008057 C25.19568116 28.0288499 18.49405457 28.06439999 11.79239082 28.1122551 C9.45639614 28.1248144 7.12067422 28.12408468 4.78465271 28.12197876 C3.34853914 28.12856088 1.91242743 28.1355675 0.47631836 28.14306641 C-0.77355362 28.14432526 -2.0234256 28.14558411 -3.31117249 28.1468811 C-6.50755317 28.39096055 -8.73221228 29.02417223 -11.60546875 30.3984375 C-11.69230165 33.8566135 -11.74580157 37.31451094 -11.79296875 40.7734375 C-11.81810547 41.75828125 -11.84324219 42.743125 -11.86914062 43.7578125 C-11.87880859 44.69882813 -11.88847656 45.63984375 -11.8984375 46.609375 C-11.91414795 47.47868652 -11.9298584 48.34799805 -11.94604492 49.24365234 C-11.83365479 49.95473145 -11.72126465 50.66581055 -11.60546875 51.3984375 C-7.90980036 53.86221643 -6.06990551 53.64944349 -1.65893555 53.65380859 C-0.60471909 53.65923927 -0.60471909 53.65923927 0.47079468 53.66477966 C1.99639399 53.6716706 3.52201794 53.67417966 5.04763222 53.67283249 C7.46504491 53.67186712 9.88201308 53.68481117 12.29936218 53.70181274 C19.1721144 53.74807677 26.04482206 53.77268273 32.91772461 53.77929688 C37.12295516 53.78431959 41.32772313 53.80860983 45.53279686 53.84462357 C47.13268439 53.85440615 48.7326357 53.85676191 50.33254433 53.85145187 C52.57546799 53.8443584 54.81702027 53.86170873 57.05981445 53.88427734 C58.33427933 53.88712738 59.6087442 53.88997742 60.92182922 53.89291382 C66.28703225 54.6739302 69.32968079 57.13743038 72.76953125 61.2109375 C74.73101438 65.05846211 74.99396478 67.12747363 74.39453125 71.3984375 C72.53971091 76.2090678 70.10535841 79.23238795 65.39453125 81.3984375 C62.54691276 81.68852684 59.92029287 81.8190794 57.07519531 81.80249023 C56.25011475 81.80935349 55.42503418 81.81621674 54.57495117 81.82328796 C51.85317664 81.84155576 49.13197883 81.83771713 46.41015625 81.83203125 C44.51071994 81.83659443 42.61128529 81.84190041 40.71185303 81.84791565 C36.73068538 81.85684775 32.74971829 81.85442409 28.76855469 81.84448242 C23.68333219 81.83301734 18.59880664 81.85316593 13.51367569 81.88239956 C9.58953497 81.90081115 5.66555952 81.90045881 1.74138641 81.89476204 C-0.13237737 81.8946093 -2.00615269 81.90061438 -3.87987518 81.91305351 C-24.09173398 82.02829113 -24.09173398 82.02829113 -32.1640625 75.25 C-32.78410156 74.51523438 -33.40414062 73.78046875 -34.04296875 73.0234375 C-34.68105469 72.29382813 -35.31914063 71.56421875 -35.9765625 70.8125 C-39.82214102 65.11329729 -39.93602384 59.3967133 -39.9765625 52.7578125 C-39.99010521 51.37447723 -39.99010521 51.37447723 -40.00392151 49.9631958 C-40.01838686 48.01667506 -40.02730148 46.07010612 -40.03100586 44.12353516 C-40.04287662 41.17135004 -40.09207676 38.2212744 -40.14257812 35.26953125 C-40.2340746 24.68237867 -40.3041754 15.98128763 -33.04760742 7.59887695 C-23.95672184 -1.20082747 -11.72289653 -0.04619985 0 0 Z " fill="#2600FF" transform="translate(637.60546875,79.6015625)"/>
<path d="M0 0 C1.02497086 -0.00686325 2.04994171 -0.0137265 3.10597229 -0.02079773 C6.49144372 -0.03908714 9.87645269 -0.03522504 13.26196289 -0.02954102 C15.61699067 -0.03410177 17.97201712 -0.03940703 20.32704163 -0.04542542 C25.26235359 -0.05436075 30.19750378 -0.05192846 35.1328125 -0.04199219 C41.45586569 -0.0305022 47.77836047 -0.05071291 54.10134029 -0.07990932 C58.96468144 -0.09825953 63.82788849 -0.09798117 68.69125557 -0.0922718 C71.02244411 -0.09211845 73.35364166 -0.09817472 75.68479729 -0.11056328 C78.94516865 -0.12544856 82.20450468 -0.11481332 85.46484375 -0.09765625 C86.42659515 -0.10732422 87.38834656 -0.11699219 88.37924194 -0.12695312 C94.17560197 -0.06311534 97.3375435 0.62971787 101.79711914 4.40405273 C104.55767218 7.31051238 105.22840613 9.29029891 105.23461914 13.27905273 C105.07292981 18.0524029 104.11861568 20.82033278 100.79711914 24.40405273 C95.78985844 27.55880524 91.83641524 27.81078848 86.11743164 27.69702148 C85.30466766 27.69277664 84.49190369 27.6885318 83.6545105 27.68415833 C81.07669955 27.66746077 78.49969094 27.62982635 75.92211914 27.59155273 C74.16692216 27.57649431 72.41171283 27.56280793 70.65649414 27.55053711 C66.36973001 27.51758665 62.08356028 27.46586726 57.79711914 27.40405273 C57.80711189 29.12840294 57.80711189 29.12840294 57.81730652 30.8875885 C57.87817154 41.73117664 57.92311774 52.57473003 57.95255566 63.41845036 C57.96819885 68.99306938 57.98941276 74.5675503 58.0234375 80.14208984 C58.05607863 85.52373547 58.07398229 90.9052484 58.08175087 96.2869854 C58.08728582 98.33825201 58.09809423 100.38951152 58.11430931 102.44072151 C58.13614656 105.31806146 58.13908341 108.19485589 58.13769531 111.07226562 C58.14848114 111.91671738 58.15926697 112.76116913 58.17037964 113.63121033 C58.14257816 118.97133397 57.32700779 122.67236834 54.79711914 127.40405273 C49.94648176 131.89976543 46.80384747 132.75992045 40.34008789 132.68530273 C36.60531496 132.27224029 34.55770086 130.89530941 31.79711914 128.40405273 C28.14639056 123.81906666 28.38789449 119.62291109 28.45654297 114.02392578 C28.45588585 112.61831642 28.45588585 112.61831642 28.45521545 111.18431091 C28.45730136 108.09458402 28.48062337 105.00540331 28.50415039 101.91577148 C28.50974704 99.77057695 28.51401681 97.62537858 28.51701355 95.48017883 C28.52845683 89.83960344 28.55791978 84.19926053 28.59112549 78.55877686 C28.62183738 72.80085393 28.63552129 67.04289337 28.65063477 61.28491211 C28.68278979 49.99119029 28.73398008 38.69764086 28.79711914 27.40405273 C27.12540649 27.43547363 27.12540649 27.43547363 25.41992188 27.4675293 C21.26217635 27.54024681 17.10448641 27.58596719 12.94628906 27.6237793 C11.15094532 27.64382275 9.35566627 27.67106524 7.56054688 27.70581055 C4.97127264 27.75465123 2.38286574 27.77709393 -0.20678711 27.79467773 C-1.00186172 27.81532288 -1.79693634 27.83596802 -2.61610413 27.85723877 C-8.28908305 27.85949319 -11.52208891 26.63641062 -16.20288086 23.40405273 C-19.41622134 19.77608767 -19.72600239 16.30557732 -19.55444336 11.61889648 C-18.85746363 7.22792422 -16.55570134 4.50877572 -13.19602966 1.76524353 C-8.81126453 -0.228811 -4.76449246 -0.02225421 0 0 Z " fill="#2600FF" transform="translate(478.202880859375,28.595947265625)"/>
<path d="M0 0 C4.40802625 2.16394016 7.23139226 4.38196867 9 9 C9.62343408 14.03365292 9.66675253 18.41249398 7.6875 23.125 C4.38849141 26.65417198 0.7808372 29.58249804 -3.00390625 32.578125 C-5.94331394 34.95417815 -8.72442841 37.43548335 -11.5 40 C-15.9615357 44.10613599 -20.57408745 47.95581708 -25.2890625 51.765625 C-31.11251726 56.56536005 -36.70019716 61.6277625 -42 67 C-41.44441406 67.23589844 -40.88882813 67.47179687 -40.31640625 67.71484375 C-37.43624409 69.3127752 -35.33630924 71.305005 -32.9375 73.5625 C-29.20404044 77.03391819 -25.40783343 80.3591628 -21.4375 83.5625 C-16.99932081 87.1445198 -12.76084655 90.88823471 -8.5546875 94.73828125 C-5.81985912 97.15948252 -2.98837997 99.42034106 -0.125 101.6875 C8.55615837 108.82152124 8.55615837 108.82152124 9.36328125 114.6015625 C9.57934126 119.18203464 9.32205286 122.30634768 7.375 126.5 C3.69599719 130.37263454 0.32438096 132.13113522 -5 132.375 C-11.01157632 132.4501447 -15.51355785 128.82926098 -19.6875 124.875 C-23.20187181 121.61880543 -26.77002111 118.50719656 -30.5 115.5 C-34.96420457 111.88850866 -39.23002114 108.11339306 -43.47265625 104.24609375 C-46.06962393 101.93812402 -48.73404013 99.74444137 -51.4375 97.5625 C-56.20352075 93.70812316 -60.71955925 89.64014814 -65.2265625 85.48828125 C-68.87099114 82.21856147 -72.66129293 79.15303115 -76.4921875 76.10546875 C-83.79745143 69.97223315 -83.79745143 69.97223315 -84.625 66 C-83.79447489 62.01347947 -81.94833811 60.76613744 -79 58 C-78.17242187 57.22140625 -77.34484375 56.4428125 -76.4921875 55.640625 C-71.02473647 50.6464757 -65.44537581 45.8651331 -59.68359375 41.21484375 C-57.05291443 39.04367173 -54.52057576 36.79758643 -52 34.5 C-48.60401318 31.40444804 -45.13828469 28.44848793 -41.5625 25.5625 C-37.78976871 22.51468341 -34.17835046 19.36314484 -30.625 16.0625 C-11.7644923 -1.30114201 -11.7644923 -1.30114201 0 0 Z " fill="#2600FF" transform="translate(154,29)"/>
<path d="M0 0 C3.38795887 2.88972962 5.70953643 5.56610928 7.125 9.8125 C7.22000325 11.30902315 7.25987048 12.80938889 7.26544189 14.30891418 C7.27400711 15.69042915 7.27400711 15.69042915 7.28274536 17.09985352 C7.28386322 18.10822266 7.28498108 19.1165918 7.28613281 20.15551758 C7.29109772 21.21921066 7.29606262 22.28290375 7.30117798 23.37882996 C7.31580741 26.90490359 7.32260294 30.43093223 7.328125 33.95703125 C7.33387581 36.40459698 7.33963355 38.85216269 7.34539795 41.29972839 C7.35591016 46.43525401 7.36175139 51.57076396 7.36523438 56.70629883 C7.37071949 63.28712017 7.3947472 69.86773464 7.42320633 76.4484911 C7.44182906 81.50567734 7.44703812 86.56281372 7.44857025 91.62003136 C7.45159813 94.04612039 7.45963115 96.47220851 7.47275543 98.89826393 C7.48980782 102.29276903 7.48793737 105.68676828 7.48144531 109.08129883 C7.4906601 110.08359528 7.49987488 111.08589172 7.5093689 112.11856079 C7.4775013 117.43713558 7.15411139 121.23736786 4.125 125.8125 C-0.50633224 129.99199495 -3.36899133 131.17258143 -9.48828125 131.09375 C-14.15190059 130.54419093 -17.48011634 128.4503467 -20.5450592 124.85154724 C-22.56075986 120.24547038 -22.30061944 115.85092805 -22.27905273 110.87524414 C-22.28591599 109.77224472 -22.29277924 108.6692453 -22.29985046 107.53282166 C-22.3181481 103.88763548 -22.31427657 100.24287848 -22.30859375 96.59765625 C-22.31315409 94.0632666 -22.31845922 91.52887819 -22.32447815 88.99449158 C-22.33341511 83.68255001 -22.33121324 78.37076477 -22.32104492 73.05883789 C-22.30956565 66.926726 -22.32363796 60.79505156 -22.3504414 54.66299731 C-22.37529904 48.75391103 -22.37777146 42.84496031 -22.37132454 36.93581963 C-22.37117113 34.42600209 -22.37723194 31.91617622 -22.38961601 29.40638924 C-22.40449243 25.89697857 -22.39387223 22.38853092 -22.37670898 18.87915039 C-22.38637695 17.84259308 -22.39604492 16.80603577 -22.40600586 15.73806763 C-22.34488088 9.769634 -21.82574616 6.372492 -17.875 1.8125 C-12.94593274 -2.536677 -5.87012005 -2.4246148 0 0 Z " fill="#2600FF" transform="translate(54.875,30.1875)"/>
<path d="M0 0 C0.91899582 -0.0049649 1.83799164 -0.00992981 2.78483582 -0.01504517 C5.82873276 -0.02966503 8.8725776 -0.03646822 11.91650391 -0.04199219 C14.03016156 -0.04774341 16.14381919 -0.05350115 18.25747681 -0.05926514 C22.69102217 -0.06977437 27.1245494 -0.07561767 31.55810547 -0.07910156 C37.23999524 -0.08458866 42.92164565 -0.10862173 48.60346031 -0.13707352 C52.97004905 -0.15569303 57.33658002 -0.16090512 61.70320511 -0.16243744 C63.79798314 -0.16546562 65.89276012 -0.17349969 67.98749924 -0.18662262 C70.91763302 -0.20366991 73.84718055 -0.2018061 76.77734375 -0.1953125 C77.6429744 -0.20452728 78.50860504 -0.21374207 79.40046692 -0.22323608 C85.49577979 -0.18090354 88.80976519 1.0141733 93.26806641 5.34863281 C95.50954909 8.9510157 96.23431406 11.92766917 96.01806641 16.16113281 C94.47764075 20.3770346 92.44522538 23.26946743 89.01806641 26.16113281 C85.02919368 27.49075706 81.19560713 27.31691916 77.03613281 27.32226562 C76.11713699 27.32723053 75.19814117 27.33219543 74.251297 27.33731079 C71.20740005 27.35193066 68.16355521 27.35873384 65.11962891 27.36425781 C63.00597126 27.37000904 60.89231362 27.37576678 58.77865601 27.38153076 C54.34511064 27.39203999 49.91158341 27.3978833 45.47802734 27.40136719 C39.79613758 27.40685429 34.11448716 27.43088736 28.4326725 27.45933914 C24.06608376 27.47795865 19.69955279 27.48317074 15.3329277 27.48470306 C13.23814967 27.48773124 11.14337269 27.49576532 9.04863358 27.50888824 C6.11849979 27.52593554 3.18895226 27.52407172 0.25878906 27.51757812 C-0.60684158 27.52679291 -1.47247223 27.53600769 -2.36433411 27.54550171 C-8.45964698 27.50316916 -11.77363238 26.30809233 -16.23193359 21.97363281 C-18.47341628 18.37124992 -19.19818125 15.39459646 -18.98193359 11.16113281 C-17.44150794 6.94523102 -15.40909256 4.05279819 -11.98193359 1.16113281 C-7.99306086 -0.16849143 -4.15947431 0.00534646 0 0 Z " fill="#2600FF" transform="translate(615.98193359375,28.8388671875)"/>
</svg>
